<?xml version="1.0" encoding="UTF-8"?> <svg xmlns="http://www.w3.org/2000/svg" width="282.823" height="317.628" viewBox="0 0 282.823 317.628"><g id="Best_Marketing_Strategy_2022" data-name="Best Marketing Strategy 2022" transform="translate(-543 -986)"><path id="Path_3262" data-name="Path 3262" d="M136.1,328.826l123.5,62.815,118.807-62.815V83.3H136.1Z" transform="translate(417.003 907.669)" fill="#fff"></path><path id="Path_3263" data-name="Path 3263" d="M373.077,84.8,132.3,327.419l124.8,61.8,115.974-59.385Z" transform="translate(420.803 910.092)" fill="#f2f3f2"></path><path id="Path_3261" data-name="Path 3261" d="M123.6,158.511V323.2l4.255,2.159,120.293,61.226,3.684,1.842,3.684-1.842L371.491,325.36l4.255-2.159V70.8H123.6Zm7.939,160.179V78.739H367.807V318.691L251.832,379.917Z" transform="translate(434.4 915.2)" fill="#dcdedc"></path><path id="Path_3264" data-name="Path 3264" d="M305.279,82.677a14.709,14.709,0,0,1,3.684.318l-3.684,6.986a10.085,10.085,0,1,0-1.207,20.134h1.207a10.474,10.474,0,0,0,6.669-2.413l3.938,6.669a18.222,18.222,0,0,1-10.67,3.366,17.546,17.546,0,1,1-1.524-35.059ZM317.728,97.6l4.573,7.622-4.573,7.3-4.255-7.3h-8.828l4.573-7.622Zm-7.3-2.731a6.656,6.656,0,0,1,.889-3.366,10.976,10.976,0,0,1,2.731-2.413l.635-.318c1.207-.635,1.524-.889,1.524-1.524s-.889-1.207-1.524-1.207a2.92,2.92,0,0,0-2.731,1.842l-1.524-1.524a7.8,7.8,0,0,1,1.524-1.842,4.346,4.346,0,0,1,2.731-.635,4.4,4.4,0,0,1,2.731.889,3.837,3.837,0,0,1,1.207,2.413,3.5,3.5,0,0,1-2.731,3.366l-.889.635c-.889.635-1.524.889-1.842,1.842h5.462v2.159C318.681,95.189,310.424,94.871,310.424,94.871Zm-5.145,38.044,28.9-16.45V70.8H276v45.348C276.063,116.212,305.279,132.916,305.279,132.916Z" transform="translate(368.371 915.2)" fill="#ff492c"></path><path id="banner" d="M372.623,338.3H108.917L99.2,359.64l9.717,21.34H372.559l9.463-21.34Z" transform="translate(443.8 817.279)" fill="#ff492c"></path><path id="Path_3280" data-name="Path 3280" d="M4.4,0V-38.511H18.423q6.445,0,9.91,2.363a7.6,7.6,0,0,1,3.464,6.66,7.883,7.883,0,0,1-2.108,5.452,11.076,11.076,0,0,1-5.385,3.25v.107a10.672,10.672,0,0,1,6.566,3.035,8.487,8.487,0,0,1,2.457,6.15A10.279,10.279,0,0,1,29.541-3.1Q25.754,0,19.2,0Zm8.674-32.119v9.131h3.813a6.356,6.356,0,0,0,4.23-1.3,4.439,4.439,0,0,0,1.544-3.585q0-4.243-6.338-4.243Zm0,15.576V-6.392h4.7a7.233,7.233,0,0,0,4.713-1.4A4.665,4.665,0,0,0,24.2-11.6a4.353,4.353,0,0,0-1.678-3.625,7.426,7.426,0,0,0-4.686-1.316Zm50.736,5.21H45.876q.43,5.989,7.546,5.989A14.733,14.733,0,0,0,61.4-7.493V-1.37A20.954,20.954,0,0,1,51.488.671q-6.66,0-10.339-3.693T37.47-13.32q0-6.848,3.975-10.85a13.241,13.241,0,0,1,9.775-4q6.016,0,9.305,3.572t3.29,9.695Zm-7.869-5.21q0-5.908-4.78-5.908a4.564,4.564,0,0,0-3.531,1.692,7.679,7.679,0,0,0-1.813,4.216ZM67.34-.725V-7.6a18.068,18.068,0,0,0,4.176,1.88A13.846,13.846,0,0,0,75.45-5.1a8.438,8.438,0,0,0,3.558-.618,2,2,0,0,0,1.3-1.88,1.739,1.739,0,0,0-.591-1.343,5.492,5.492,0,0,0-1.517-.94,17.219,17.219,0,0,0-2.028-.725q-1.1-.322-2.122-.725a20.327,20.327,0,0,1-2.887-1.329,8.344,8.344,0,0,1-2.095-1.652,6.492,6.492,0,0,1-1.289-2.175,8.681,8.681,0,0,1-.443-2.927,7.536,7.536,0,0,1,1.007-3.975,8.226,8.226,0,0,1,2.686-2.726,12.271,12.271,0,0,1,3.84-1.558,20.024,20.024,0,0,1,4.5-.5,24.959,24.959,0,0,1,3.706.282,27.661,27.661,0,0,1,3.706.819v6.553a13.391,13.391,0,0,0-3.451-1.41,14.557,14.557,0,0,0-3.612-.47,8,8,0,0,0-1.571.148,5.174,5.174,0,0,0-1.3.43,2.392,2.392,0,0,0-.886.725,1.669,1.669,0,0,0-.322,1.007,1.86,1.86,0,0,0,.483,1.289,4.2,4.2,0,0,0,1.262.927,12.46,12.46,0,0,0,1.732.7q.953.309,1.893.631a24.616,24.616,0,0,1,3.062,1.289,9.789,9.789,0,0,1,2.35,1.638,6.433,6.433,0,0,1,1.5,2.2,7.827,7.827,0,0,1,.524,3.008A7.846,7.846,0,0,1,87.387-4.23a8.493,8.493,0,0,1-2.82,2.82A12.788,12.788,0,0,1,80.512.175a22.481,22.481,0,0,1-4.767.5A24.574,24.574,0,0,1,67.34-.725Zm42.895.4a12.544,12.544,0,0,1-5.667.994q-8.97,0-8.97-9.319v-12.6H91.14V-27.5H95.6v-5.935l8.459-2.417V-27.5h6.177v6.257h-6.177v11.118q0,4.3,3.411,4.3a5.75,5.75,0,0,0,2.766-.779Z" transform="translate(617.716 1125)" fill="#252530"></path><path id="Path_3279" data-name="Path 3279" d="M-96.463-14.532a.329.329,0,0,1,.294-.168h1.932a.243.243,0,0,1,.178.074.243.243,0,0,1,.074.178v14.2a.243.243,0,0,1-.074.179A.243.243,0,0,1-94.237,0h-1.932a.243.243,0,0,1-.179-.073.243.243,0,0,1-.074-.179V-10.269a.082.082,0,0,0-.052-.084q-.052-.021-.074.042l-2.625,4.032a.329.329,0,0,1-.294.168h-.966a.329.329,0,0,1-.294-.168l-2.646-4.011q-.021-.063-.074-.042a.082.082,0,0,0-.052.084v10a.243.243,0,0,1-.074.179A.243.243,0,0,1-103.75,0h-1.932a.243.243,0,0,1-.179-.073.243.243,0,0,1-.074-.179v-14.2a.243.243,0,0,1,.074-.178.243.243,0,0,1,.179-.074h1.932a.329.329,0,0,1,.294.168l3.423,5.187a.121.121,0,0,0,.084.042.067.067,0,0,0,.063-.042ZM-81.805,0a.264.264,0,0,1-.273-.21l-.693-2.247q-.042-.084-.105-.084H-88.42q-.063,0-.1.084L-89.218-.21a.264.264,0,0,1-.273.21h-2.1a.235.235,0,0,1-.189-.073.23.23,0,0,1-.021-.22l4.557-14.2a.264.264,0,0,1,.273-.21h2.625a.264.264,0,0,1,.273.21L-79.5-.294a.234.234,0,0,1,.021.1q0,.189-.231.189Zm-6.069-4.578q-.021.126.084.126h4.263q.126,0,.084-.126l-2.163-7.035q-.021-.084-.063-.084t-.063.084ZM-69.058,0a.3.3,0,0,1-.294-.189l-2.772-6.048a.135.135,0,0,0-.126-.084h-2.52a.093.093,0,0,0-.1.105V-.252a.243.243,0,0,1-.074.179A.243.243,0,0,1-75.127,0h-1.932a.243.243,0,0,1-.179-.073.243.243,0,0,1-.074-.179v-14.2a.243.243,0,0,1,.074-.178.243.243,0,0,1,.179-.074h5.775a4.68,4.68,0,0,1,2.268.535,3.8,3.8,0,0,1,1.533,1.512,4.5,4.5,0,0,1,.546,2.236,4.063,4.063,0,0,1-.745,2.468,3.857,3.857,0,0,1-2.068,1.417.067.067,0,0,0-.063.042.089.089,0,0,0,0,.084l2.961,6.111a.322.322,0,0,1,.042.126q0,.168-.231.168ZM-74.77-12.6a.093.093,0,0,0-.1.1v4.179a.093.093,0,0,0,.1.105h3.15a2.244,2.244,0,0,0,1.628-.6,2.1,2.1,0,0,0,.619-1.585,2.138,2.138,0,0,0-.619-1.6A2.222,2.222,0,0,0-71.62-12.6ZM-64.186,0a.243.243,0,0,1-.179-.073.243.243,0,0,1-.074-.179v-14.2a.243.243,0,0,1,.074-.178.243.243,0,0,1,.179-.074h1.932a.243.243,0,0,1,.179.074.243.243,0,0,1,.074.178v6.279a.085.085,0,0,0,.042.084.069.069,0,0,0,.084-.021l5.46-6.447A.4.4,0,0,1-56.1-14.7h2.184q.21,0,.21.147a.359.359,0,0,1-.063.168l-4.809,5.9a.121.121,0,0,0-.021.147l5.166,8.043a.877.877,0,0,1,.042.147q0,.147-.21.147h-2.205A.329.329,0,0,1-56.1-.168l-4.158-6.468q-.084-.126-.147-.021L-61.96-4.851A.338.338,0,0,0-62-4.7V-.252a.243.243,0,0,1-.074.179A.243.243,0,0,1-62.254,0Zm22.722-12.852a.243.243,0,0,1-.074.179.243.243,0,0,1-.178.073h-7.161a.093.093,0,0,0-.1.1v3.927a.093.093,0,0,0,.1.105h4.809a.243.243,0,0,1,.179.073.243.243,0,0,1,.074.179v1.6a.243.243,0,0,1-.074.179.243.243,0,0,1-.179.074h-4.809a.093.093,0,0,0-.1.1v4.053a.093.093,0,0,0,.1.105h7.161a.243.243,0,0,1,.178.074.243.243,0,0,1,.074.178v1.6a.243.243,0,0,1-.074.179A.243.243,0,0,1-41.716,0h-9.45a.243.243,0,0,1-.179-.073.243.243,0,0,1-.073-.179v-14.2a.243.243,0,0,1,.073-.178.243.243,0,0,1,.179-.074h9.45a.243.243,0,0,1,.178.074.243.243,0,0,1,.074.178ZM-29.326-14.7a.243.243,0,0,1,.179.074.243.243,0,0,1,.073.178v1.617a.243.243,0,0,1-.073.179.243.243,0,0,1-.179.073H-33.19a.093.093,0,0,0-.1.1V-.252a.243.243,0,0,1-.073.179A.243.243,0,0,1-33.547,0h-1.932a.243.243,0,0,1-.179-.073.243.243,0,0,1-.073-.179V-12.474a.093.093,0,0,0-.105-.1h-3.717a.243.243,0,0,1-.179-.073.243.243,0,0,1-.073-.179v-1.617a.243.243,0,0,1,.073-.178.243.243,0,0,1,.179-.074ZM-26.575,0a.243.243,0,0,1-.178-.073.243.243,0,0,1-.073-.179v-14.2a.243.243,0,0,1,.073-.178.243.243,0,0,1,.178-.074h1.932a.243.243,0,0,1,.179.074.243.243,0,0,1,.073.178v14.2a.243.243,0,0,1-.073.179A.243.243,0,0,1-24.643,0Zm13.8-14.448a.243.243,0,0,1,.074-.178.243.243,0,0,1,.179-.074h1.932a.243.243,0,0,1,.179.074.243.243,0,0,1,.073.178v14.2a.243.243,0,0,1-.073.179A.243.243,0,0,1-10.594,0h-1.869a.3.3,0,0,1-.294-.168l-6.048-9.912q-.042-.063-.084-.053t-.042.095l.042,9.786a.243.243,0,0,1-.073.179A.243.243,0,0,1-19.141,0h-1.932a.243.243,0,0,1-.178-.073.243.243,0,0,1-.073-.179v-14.2a.243.243,0,0,1,.073-.178.243.243,0,0,1,.178-.074H-19.2a.3.3,0,0,1,.294.168l6.027,9.912q.042.063.084.053t.042-.095ZM-2.363.168a5.948,5.948,0,0,1-2.772-.62A4.425,4.425,0,0,1-6.983-2.205a5.136,5.136,0,0,1-.651-2.6V-9.891a5.121,5.121,0,0,1,.651-2.615,4.445,4.445,0,0,1,1.848-1.743,5.948,5.948,0,0,1,2.772-.619,5.92,5.92,0,0,1,2.741.609A4.55,4.55,0,0,1,2.215-12.6a4.411,4.411,0,0,1,.651,2.373v.168a.243.243,0,0,1-.074.179.243.243,0,0,1-.178.074H.7a.243.243,0,0,1-.179-.074.243.243,0,0,1-.073-.179v-.1a2.478,2.478,0,0,0-.767-1.869,2.834,2.834,0,0,0-2.048-.735A2.8,2.8,0,0,0-4.421-12,2.719,2.719,0,0,0-5.2-9.975v5.25A2.645,2.645,0,0,0-4.379-2.7a2.979,2.979,0,0,0,2.121.766A2.832,2.832,0,0,0-.273-2.594,2.337,2.337,0,0,0,.451-4.41v-1.3a.093.093,0,0,0-.105-.105H-2.237a.243.243,0,0,1-.179-.074.243.243,0,0,1-.073-.178V-7.623A.243.243,0,0,1-2.415-7.8a.243.243,0,0,1,.179-.074H2.614a.243.243,0,0,1,.178.074.243.243,0,0,1,.074.179v2.688A4.931,4.931,0,0,1,1.449-1.176,5.312,5.312,0,0,1-2.363.168Zm16.9,0a7.172,7.172,0,0,1-2.856-.525,4.3,4.3,0,0,1-1.88-1.47,3.783,3.783,0,0,1-.661-2.226v-.525a.243.243,0,0,1,.073-.179A.243.243,0,0,1,9.4-4.83h1.869a.243.243,0,0,1,.178.073.243.243,0,0,1,.074.179v.4a1.932,1.932,0,0,0,.861,1.607,3.861,3.861,0,0,0,2.352.64,2.944,2.944,0,0,0,1.932-.546,1.752,1.752,0,0,0,.651-1.407,1.465,1.465,0,0,0-.357-1,3.34,3.34,0,0,0-1.019-.746q-.661-.336-1.984-.84A20.765,20.765,0,0,1,11.539-7.5,4.508,4.508,0,0,1,10-8.81a3.36,3.36,0,0,1-.62-2.068A3.532,3.532,0,0,1,10.72-13.8a5.6,5.6,0,0,1,3.591-1.071,6.691,6.691,0,0,1,2.783.546A4.436,4.436,0,0,1,18.973-12.8a3.885,3.885,0,0,1,.672,2.258v.357a.243.243,0,0,1-.073.179.243.243,0,0,1-.178.073H17.5a.243.243,0,0,1-.179-.073.243.243,0,0,1-.073-.179v-.231a2.106,2.106,0,0,0-.809-1.67,3.362,3.362,0,0,0-2.236-.682,2.928,2.928,0,0,0-1.8.483,1.609,1.609,0,0,0-.641,1.365,1.543,1.543,0,0,0,.336,1.029,3.019,3.019,0,0,0,1.008.725q.672.326,2.079.83a23.639,23.639,0,0,1,2.383,1.029A4.586,4.586,0,0,1,19.11-6.016a3.284,3.284,0,0,1,.641,2.068,3.639,3.639,0,0,1-1.4,3A5.953,5.953,0,0,1,14.542.168ZM31.594-14.7a.243.243,0,0,1,.179.074.243.243,0,0,1,.073.178v1.617a.243.243,0,0,1-.073.179.243.243,0,0,1-.179.073H27.73a.093.093,0,0,0-.1.1V-.252a.243.243,0,0,1-.073.179A.243.243,0,0,1,27.373,0H25.441a.243.243,0,0,1-.179-.073.243.243,0,0,1-.073-.179V-12.474a.093.093,0,0,0-.1-.1H21.367a.243.243,0,0,1-.178-.073.243.243,0,0,1-.073-.179v-1.617a.243.243,0,0,1,.073-.178.243.243,0,0,1,.178-.074ZM42.346,0a.3.3,0,0,1-.294-.189L39.28-6.237a.135.135,0,0,0-.126-.084h-2.52a.093.093,0,0,0-.1.105V-.252a.243.243,0,0,1-.074.179A.243.243,0,0,1,36.277,0H34.345a.243.243,0,0,1-.179-.073.243.243,0,0,1-.073-.179v-14.2a.243.243,0,0,1,.073-.178.243.243,0,0,1,.179-.074H40.12a4.68,4.68,0,0,1,2.268.535,3.8,3.8,0,0,1,1.533,1.512,4.5,4.5,0,0,1,.546,2.236,4.063,4.063,0,0,1-.746,2.468,3.857,3.857,0,0,1-2.068,1.417.067.067,0,0,0-.063.042.089.089,0,0,0,0,.084L44.551-.294a.322.322,0,0,1,.042.126q0,.168-.231.168ZM36.634-12.6a.093.093,0,0,0-.1.1v4.179a.093.093,0,0,0,.1.105h3.15a2.244,2.244,0,0,0,1.628-.6,2.1,2.1,0,0,0,.619-1.585,2.138,2.138,0,0,0-.619-1.6,2.222,2.222,0,0,0-1.628-.609ZM56.563,0a.264.264,0,0,1-.273-.21L55.6-2.457q-.042-.084-.1-.084H49.948q-.063,0-.1.084L49.15-.21a.264.264,0,0,1-.273.21h-2.1a.235.235,0,0,1-.189-.073.23.23,0,0,1-.021-.22l4.557-14.2a.264.264,0,0,1,.273-.21h2.625a.264.264,0,0,1,.273.21l4.578,14.2a.234.234,0,0,1,.021.1q0,.189-.231.189ZM50.494-4.578q-.021.126.084.126h4.263q.126,0,.084-.126l-2.163-7.035q-.021-.084-.063-.084t-.063.084ZM69.079-14.7a.243.243,0,0,1,.178.074.243.243,0,0,1,.074.178v1.617a.243.243,0,0,1-.074.179.243.243,0,0,1-.178.073H65.215a.093.093,0,0,0-.105.1V-.252a.243.243,0,0,1-.074.179A.243.243,0,0,1,64.858,0H62.926a.243.243,0,0,1-.179-.073.243.243,0,0,1-.073-.179V-12.474a.093.093,0,0,0-.105-.1H58.852a.243.243,0,0,1-.179-.073.243.243,0,0,1-.073-.179v-1.617a.243.243,0,0,1,.073-.178.243.243,0,0,1,.179-.074Zm12.453,1.848a.243.243,0,0,1-.074.179.243.243,0,0,1-.178.073H74.119a.093.093,0,0,0-.1.1v3.927a.093.093,0,0,0,.1.105h4.809a.243.243,0,0,1,.178.073.243.243,0,0,1,.074.179v1.6a.243.243,0,0,1-.074.179.243.243,0,0,1-.178.074H74.119a.093.093,0,0,0-.1.1v4.053a.093.093,0,0,0,.1.105H81.28a.243.243,0,0,1,.178.074.243.243,0,0,1,.074.178v1.6a.243.243,0,0,1-.074.179A.243.243,0,0,1,81.28,0H71.83a.243.243,0,0,1-.179-.073.243.243,0,0,1-.074-.179v-14.2a.243.243,0,0,1,.074-.178.243.243,0,0,1,.179-.074h9.45a.243.243,0,0,1,.178.074.243.243,0,0,1,.074.178ZM88.924.168a5.948,5.948,0,0,1-2.772-.62A4.425,4.425,0,0,1,84.3-2.205a5.136,5.136,0,0,1-.651-2.6V-9.891a5.121,5.121,0,0,1,.651-2.615,4.445,4.445,0,0,1,1.848-1.743,5.948,5.948,0,0,1,2.772-.619,5.92,5.92,0,0,1,2.741.609A4.55,4.55,0,0,1,93.5-12.6a4.411,4.411,0,0,1,.651,2.373v.168a.243.243,0,0,1-.074.179.243.243,0,0,1-.178.074H91.991a.243.243,0,0,1-.178-.074.243.243,0,0,1-.074-.179v-.1a2.478,2.478,0,0,0-.767-1.869,2.834,2.834,0,0,0-2.048-.735A2.8,2.8,0,0,0,86.867-12a2.719,2.719,0,0,0-.777,2.026v5.25A2.645,2.645,0,0,0,86.909-2.7a2.979,2.979,0,0,0,2.121.766,2.832,2.832,0,0,0,1.984-.661,2.337,2.337,0,0,0,.725-1.817v-1.3a.093.093,0,0,0-.105-.105H89.05a.243.243,0,0,1-.178-.074.243.243,0,0,1-.074-.178V-7.623a.243.243,0,0,1,.074-.179.243.243,0,0,1,.178-.074H93.9a.243.243,0,0,1,.178.074.243.243,0,0,1,.074.179v2.688a4.931,4.931,0,0,1-1.418,3.759A5.312,5.312,0,0,1,88.924.168ZM100.2-.021a.243.243,0,0,1-.179-.074.243.243,0,0,1-.074-.178V-5.9a.292.292,0,0,0-.021-.126L95.6-14.406a.322.322,0,0,1-.042-.126q0-.168.231-.168H97.87a.3.3,0,0,1,.294.189l2.94,5.859q.063.084.126,0l2.961-5.859a.324.324,0,0,1,.294-.189h2.1a.217.217,0,0,1,.2.084.207.207,0,0,1-.01.21l-4.347,8.379a.322.322,0,0,0-.042.126V-.273a.243.243,0,0,1-.074.178.243.243,0,0,1-.178.074Z" transform="translate(684 1185)" fill="#fff"></path><path id="Union_6" data-name="Union 6" d="M28.069,30.075a10.06,10.06,0,0,1-2.891-7.618V10.375a10.1,10.1,0,0,1,2.891-7.551A10.693,10.693,0,0,1,35.842,0a10.512,10.512,0,0,1,7.772,2.824,9.9,9.9,0,0,1,2.891,7.551V22.457a10.06,10.06,0,0,1-2.891,7.618A10.682,10.682,0,0,1,35.842,32.9,10.531,10.531,0,0,1,28.069,30.075ZM32.693,6.9a4.844,4.844,0,0,0-1.218,3.347V22.788a4.24,4.24,0,0,0,4.366,4.6,3.98,3.98,0,0,0,3.149-1.248,4.852,4.852,0,0,0,1.221-3.347V10.243A4.559,4.559,0,0,0,38.99,6.9a4.073,4.073,0,0,0-3.149-1.248A4.073,4.073,0,0,0,32.693,6.9ZM50.809,32.373a.53.53,0,0,1-.386-.132.49.49,0,0,1-.129-.395v-4.2a1,1,0,0,1,.257-.722c1.479-1.447,2.954-3.023,4.5-4.73s2.5-2.824,2.891-3.215c.835-.985,1.67-1.97,2.5-2.891,2.7-3.084,4.046-5.317,4.046-6.829A3.5,3.5,0,0,0,63.4,6.633a4.3,4.3,0,0,0-2.891-.985,4.073,4.073,0,0,0-2.891.985A3.511,3.511,0,0,0,56.462,9.39v1.117a.974.974,0,0,1-.129.395.466.466,0,0,1-.386.132H50.68a.924.924,0,0,1-.386-.132.571.571,0,0,1-.191-.395V8.34a8.8,8.8,0,0,1,1.541-4.4A8.569,8.569,0,0,1,55.3,1.049a13.2,13.2,0,0,1,5.2-.985,11.3,11.3,0,0,1,5.525,1.248,9.169,9.169,0,0,1,3.594,3.219,8.673,8.673,0,0,1,1.287,4.6,9.374,9.374,0,0,1-.964,3.941A20.725,20.725,0,0,1,67.122,17.4c-.9,1.181-1.927,2.362-3.017,3.546s-2.634,2.821-4.756,4.99l-.64.655a.245.245,0,0,0-.066.2.24.24,0,0,0,.195.064H70.914a.911.911,0,0,1,.383.132.576.576,0,0,1,.195.395v4.464a.576.576,0,0,1-.195.395.46.46,0,0,1-.383.132Zm-50.1,0a.536.536,0,0,1-.386-.132.49.49,0,0,1-.129-.395v-4.2a1,1,0,0,1,.257-.722c1.479-1.447,2.957-3.023,4.5-4.73s2.5-2.824,2.888-3.215c.835-.985,1.67-1.97,2.5-2.891,2.7-3.084,4.05-5.317,4.05-6.829A3.5,3.5,0,0,0,13.3,6.633a4.3,4.3,0,0,0-2.891-.985,4.073,4.073,0,0,0-2.891.985A3.522,3.522,0,0,0,6.36,9.39v1.117a.974.974,0,0,1-.129.395.466.466,0,0,1-.386.132H.578A.924.924,0,0,1,.191,10.9.571.571,0,0,1,0,10.506V8.34a8.831,8.831,0,0,1,1.541-4.4A8.588,8.588,0,0,1,5.2,1.049a13.211,13.211,0,0,1,5.2-.985,11.294,11.294,0,0,1,5.525,1.248,9.179,9.179,0,0,1,3.6,3.219,8.67,8.67,0,0,1,1.284,4.6,9.325,9.325,0,0,1-.964,3.941A20.831,20.831,0,0,1,17.023,17.4c-.9,1.181-1.927,2.362-3.02,3.546s-2.634,2.821-4.752,4.99l-.644.655a.253.253,0,0,0-.063.2.23.23,0,0,0,.191.064H20.812a.924.924,0,0,1,.386.132.571.571,0,0,1,.191.395v4.464a.571.571,0,0,1-.191.395.466.466,0,0,1-.386.132ZM75.8,32.309a.535.535,0,0,1-.383-.132.49.49,0,0,1-.129-.395v-4.2a.994.994,0,0,1,.257-.722c1.475-1.444,2.954-3.02,4.5-4.727s2.5-2.824,2.891-3.219c.835-.985,1.67-1.97,2.5-2.888,2.7-3.087,4.046-5.321,4.046-6.829a3.509,3.509,0,0,0-1.092-2.628A4.307,4.307,0,0,0,85.5,5.58a4.086,4.086,0,0,0-2.888.985,3.516,3.516,0,0,0-1.158,2.76v1.117a.928.928,0,0,1-.129.391.466.466,0,0,1-.386.132H75.67a.879.879,0,0,1-.386-.132.576.576,0,0,1-.195-.391V8.273a8.854,8.854,0,0,1,1.541-4.4A8.591,8.591,0,0,1,80.294.985,13.123,13.123,0,0,1,85.5,0,11.285,11.285,0,0,1,91.02,1.248a9.146,9.146,0,0,1,3.6,3.215,8.682,8.682,0,0,1,1.284,4.6A9.325,9.325,0,0,1,94.938,13a20.684,20.684,0,0,1-2.825,4.332c-.9,1.181-1.927,2.365-3.02,3.546s-2.634,2.824-4.752,4.99l-.644.658a.246.246,0,0,0-.063.2.226.226,0,0,0,.191.067H95.9a.879.879,0,0,1,.386.132.564.564,0,0,1,.191.391v4.467a.571.571,0,0,1-.191.395.466.466,0,0,1-.386.132Z" transform="translate(625.629 1217.703)" fill="#252530"></path></g></svg> 